<?xml version="1.0" encoding="UTF-8" standalone="no"?>
<svg
   xmlns:dc="http://purl.org/dc/elements/1.1/"
   xmlns:cc="http://creativecommons.org/ns#"
   xmlns:rdf="http://www.w3.org/1999/02/22-rdf-syntax-ns#"
   xmlns:svg="http://www.w3.org/2000/svg"
   xmlns="http://www.w3.org/2000/svg"
   xmlns:xlink="http://www.w3.org/1999/xlink"
   xmlns:sodipodi="http://sodipodi.sourceforge.net/DTD/sodipodi-0.dtd"
   xmlns:inkscape="http://www.inkscape.org/namespaces/inkscape"
   height="660.51825"
   width="600"
   version="1.0"
   id="svg2"
   sodipodi:version="0.32"
   inkscape:version="0.46"
   sodipodi:docname="blason_ville_fr_Villereau_(Loiret).svg"
   inkscape:export-filename="/Users/olivier/Desktop/Blason Rouge/Blason_Vide_3D.png"
   inkscape:export-xdpi="144"
   inkscape:export-ydpi="144"
   sodipodi:docbase="C:\Mes documents\Mes Images\Blasons\SVG"
   inkscape:output_extension="org.inkscape.output.svg.inkscape">
  <metadata
     id="metadata49">
    <rdf:RDF>
      <cc:Work
         rdf:about="">
        <dc:format>image/svg+xml</dc:format>
        <dc:type
           rdf:resource="http://purl.org/dc/dcmitype/StillImage" />
        <dc:title>Gabarit d'un blason en pointe pour le projet Blasons de Wikipédia</dc:title>
        <dc:date>03-AUG-2006</dc:date>
        <dc:creator>
          <cc:Agent>
            <dc:title>Jérôme BLUM (wagner51)</dc:title>
          </cc:Agent>
        </dc:creator>
        <cc:license
           rdf:resource="http://web.resource.org/cc/PublicDomain" />
        <dc:language>fr</dc:language>
        <dc:subject>
          <rdf:Bag>
            <rdf:li>gabarit modèle blason projet wikipédia</rdf:li>
          </rdf:Bag>
        </dc:subject>
      </cc:Work>
      <cc:License
         rdf:about="http://web.resource.org/cc/PublicDomain">
        <cc:permits
           rdf:resource="http://web.resource.org/cc/Reproduction" />
        <cc:permits
           rdf:resource="http://web.resource.org/cc/Distribution" />
        <cc:permits
           rdf:resource="http://web.resource.org/cc/DerivativeWorks" />
      </cc:License>
    </rdf:RDF>
  </metadata>
  <sodipodi:namedview
     inkscape:window-height="977"
     inkscape:window-width="1280"
     inkscape:pageshadow="2"
     inkscape:pageopacity="0.0"
     guidetolerance="10.0"
     gridtolerance="10.0"
     objecttolerance="10.0"
     borderopacity="1.0"
     bordercolor="#666666"
     pagecolor="#ffffff"
     id="base"
     showgrid="false"
     height="660px"
     inkscape:zoom="1.1612094"
     inkscape:cx="300"
     inkscape:cy="330.25912"
     inkscape:window-x="-4"
     inkscape:window-y="-4"
     inkscape:current-layer="layer3"
     showguides="true"
     inkscape:guide-bbox="true"
     inkscape:object-nodes="true"
     inkscape:snap-global="true" />
  <desc
     id="desc4">Flag of Canton of Valais (Wallis)</desc>
  <defs
     id="defs6">
    <linearGradient
       id="linearGradient2893">
      <stop
         style="stop-color:white;stop-opacity:0.3137255;"
         offset="0"
         id="stop2895" />
      <stop
         id="stop2897"
         offset="0.19"
         style="stop-color:white;stop-opacity:0.25098041;" />
      <stop
         style="stop-color:#6b6b6b;stop-opacity:0.1254902;"
         offset="0.60000002"
         id="stop2901" />
      <stop
         style="stop-color:black;stop-opacity:0.1254902;"
         offset="1"
         id="stop2899" />
    </linearGradient>
    <radialGradient
       inkscape:collect="always"
       xlink:href="#linearGradient2893"
       id="radialGradient3163"
       gradientUnits="userSpaceOnUse"
       gradientTransform="matrix(1.353218,0,0,1.348928,-77.62935,-85.74693)"
       cx="221.44487"
       cy="226.33101"
       fx="221.44487"
       fy="226.33101"
       r="300" />
  </defs>
  <g
     inkscape:groupmode="layer"
     id="layer3"
     inkscape:label="Fond écu"
     style="display:inline"
     transform="translate(2.384186e-7,-0.439335)">
    <path
       style="fill:#e20909;fill-opacity:1;fill-rule:evenodd"
       d="M 3.4374998,300.95758 C 29.03078,557.47793 300,659.45758 300,659.45758 L 300,300.95758 L 3.4374998,300.95758 z"
       id="path2855" />
    <path
       style="fill:#fcef3c;fill-opacity:1;fill-rule:evenodd"
       d="M 1.5 2.6875 L 1.5 261.25 C 1.5 274.73041 2.1689535 287.81666 3.4375 300.53125 L 300 300.53125 L 300 2.6875 L 1.5 2.6875 z "
       id="path3829"
       transform="translate(-2.384186e-7,0.439335)" />
    <path
       id="path3848"
       d="M 598.5,3.126838 L 598.5,261.68934 C 598.5,275.16975 597.83105,288.256 596.5625,300.97059 L 300,300.97059 L 300,3.126838 L 598.5,3.126838 z"
       style="fill:#e20909;fill-opacity:1;fill-rule:evenodd" />
    <path
       id="path3850"
       d="M 596.5625,300.95758 C 570.96922,557.47793 300,659.45758 300,659.45758 L 300,300.95758 L 596.5625,300.95758 z"
       style="fill:#fcef3c;fill-opacity:1;fill-rule:evenodd" />
  </g>
  <g
     inkscape:groupmode="layer"
     id="layer4"
     inkscape:label="Meubles"
     style="display:inline"
     transform="translate(2.384186e-7,-0.439335)">
    <rect
       style="opacity:1;fill:#000000;fill-opacity:1;stroke:none;stroke-width:3;stroke-miterlimit:4;stroke-dasharray:none;stroke-opacity:1"
       id="rect10614"
       width="592.62604"
       height="3"
       x="3.3486757"
       y="299.45758" />
    <rect
       style="opacity:1;fill:#000000;fill-opacity:1;stroke:none;stroke-width:3;stroke-miterlimit:4;stroke-dasharray:none;stroke-opacity:1"
       id="rect10616"
       width="3"
       height="656.65015"
       x="298.5"
       y="2.807431" />
    <path
       id="path5089"
       d="M 449.82698,52.85148 L 428.10133,104.26555 L 370.41706,98.807317 L 403.96171,143.41429 L 370.323,190.62493 L 425.12305,184.0374 L 450.14048,236.76898 L 471.11375,185.95092 L 529.51907,190.81314 L 496.13117,147.20998 L 529.67583,99.05828 L 474.3428,106.17909 L 449.82698,52.85148 L 449.82698,52.85148 z M 450.01508,121.80094 C 462.70373,121.80094 472.99475,132.12957 472.99475,144.82592 C 472.9948,157.52225 462.70373,167.81952 450.01508,167.81952 C 437.32645,167.81952 427.00406,157.52225 427.00406,144.82592 C 427.00406,132.12957 437.32645,121.80094 450.01508,121.80094 z"
       style="fill:#fcef3c;fill-opacity:1;fill-rule:evenodd;stroke:#000000;stroke-width:3;stroke-linecap:butt;stroke-linejoin:miter;stroke-miterlimit:4;stroke-dasharray:none;stroke-opacity:1;display:inline" />
    <g
       transform="matrix(0.64,0,0,0.64,31.314634,22.106645)"
       id="g9597">
      <g
         style="fill:#cbc46d;fill-opacity:1"
         id="g10725">
        <g
           transform="matrix(1.21977,0,0,1.21977,-43.00327,-4.454413)"
           id="g3657">
          <path
             id="path8616"
             style="fill:#e20909;fill-opacity:1;fill-rule:evenodd;stroke:#000000;stroke-width:2.45948076;stroke-linecap:butt;stroke-linejoin:miter;stroke-miterlimit:4;stroke-dasharray:none;stroke-opacity:1"
             d="M 139.49139,129.82104 C 138.44385,126.46466 136.93903,117.52419 136.07955,115.15262 C 133.8969,109.13008 115.73106,99.891253 110.64393,101.58696 C 105.5568,103.28267 112.33964,118.54404 112.33964,125.32688 C 112.33964,132.10971 103.8611,150.76249 103.8611,159.24104 C 103.8611,167.71958 105.76122,210.04415 105.76122,221.91411 C 105.76122,233.78406 121.0226,242.73177 124.41401,252.90603 C 127.80543,263.08027 137.77526,269.79497 139.47097,283.36063 C 143.00055,300.05543 141.60672,300.72833 138.22918,320.08695 C 139.13798,324.0854 211.62347,336.68055 243.05944,318.29695 C 239.67627,303.68333 239.37313,295.74567 242.02945,276.1013 C 251.48295,257.48135 256.41802,241.75486 261.2142,228.56534 C 266.01039,215.37583 269.60752,187.87645 269.60752,177.08503 C 269.60752,166.29362 267.06582,120.33335 269.21373,109.69009 C 274.75491,82.232525 263.61229,72.168448 257.61705,72.168448 C 244.67768,76.794819 248.1507,94.221088 247.42517,107.54033 C 245.41461,117.98131 246.21966,123.91705 243.37397,148.36817 C 245.17362,134.90412 243.82711,125.79112 244.22182,111.59152 C 242.97288,92.788804 244.34228,94.668791 243.06537,78.043172 C 241.45757,62.022508 246.73868,21.06146 226.92085,17.012299 C 213.72607,14.034776 212.47568,43.98025 212.6528,66.173214 C 211.00025,75.707163 210.94727,86.240515 211.45375,97.947953 C 210.83727,111.86398 210.95452,117.98722 210.85423,130.92174 C 210.47975,117.53065 211.84283,106.20156 210.50304,91.661782 C 209.06482,74.845473 207.427,72.197101 208.25042,54.01963 C 207.05138,46.82535 210.11656,7.3170632 189.50208,7.6682558 C 172.87794,13.181088 179.44105,35.444104 178.47998,54.782271 C 178.47998,69.215199 177.74145,78.62242 178.23164,94.659397 C 178.23164,94.659397 178.30397,112.15065 179.67903,129.74766 C 178.28827,111.61448 179.00859,106.20828 178.44874,94.133321 C 176.49309,79.721893 176.35528,80.022899 174.91419,66.31559 C 175.18329,25.222603 165.87297,20.922823 159.29523,21.208963 C 142.94688,21.920135 144.30715,46.388944 144.30715,70.369879 C 143.1081,79.053297 143.70763,88.714295 144.30715,102.04949 C 144.30715,109.57534 139.49139,129.82104 139.49139,129.82104 z"
             sodipodi:nodetypes="cssssssccccssscccccccccccccccccsccc" />
          <path
             style="fill:#e20909;fill-opacity:1;fill-rule:evenodd;stroke:#000000;stroke-width:2.45948076;stroke-linecap:butt;stroke-linejoin:miter;stroke-miterlimit:4;stroke-dasharray:none;stroke-opacity:1"
             d="M 206.69676,277.36208 C 206.69676,277.36208 222.17394,279.2142 232.23147,275.12288"
             id="path8618" />
          <path
             style="fill:#e20909;fill-opacity:1;fill-rule:evenodd;stroke:#000000;stroke-width:2.45948076;stroke-linecap:butt;stroke-linejoin:miter;stroke-miterlimit:4;stroke-dasharray:none;stroke-opacity:1"
             d="M 146.59567,279.8112 C 157.33225,282.44399 176.617,278.06719 181.59502,269.78043"
             id="path8620" />
          <path
             style="fill:#e20909;fill-opacity:1;fill-rule:evenodd;stroke:#000000;stroke-width:2.45948076;stroke-linecap:butt;stroke-linejoin:miter;stroke-miterlimit:4;stroke-dasharray:none;stroke-opacity:1"
             d="M 148.61704,135.25165 C 158.59488,131.50996 164.83102,130.26274 172.3144,131.50996"
             id="path8644" />
          <path
             style="fill:#e20909;fill-opacity:1;fill-rule:evenodd;stroke:#000000;stroke-width:2.45948076;stroke-linecap:butt;stroke-linejoin:miter;stroke-miterlimit:4;stroke-dasharray:none;stroke-opacity:1"
             d="M 186.03391,133.79415 C 193.5173,132.54693 196.01175,132.54693 202.2479,133.79415"
             id="path8646" />
          <path
             style="fill:#e20909;fill-opacity:1;fill-rule:evenodd;stroke:#000000;stroke-width:2.45948076;stroke-linecap:butt;stroke-linejoin:miter;stroke-miterlimit:4;stroke-dasharray:none;stroke-opacity:1"
             d="M 217.21466,136.28861 C 225.94525,137.53583 230.93418,141.27752 235.9231,142.52476"
             id="path8648" />
          <path
             style="fill:#e20909;fill-opacity:1;fill-rule:evenodd;stroke:#000000;stroke-width:2.45948076;stroke-linecap:butt;stroke-linejoin:miter;stroke-miterlimit:4;stroke-dasharray:none;stroke-opacity:1"
             d="M 248.39539,148.97118 C 254.63153,152.71287 257.12599,153.9601 263.36214,155.20732"
             id="path8650" />
          <path
             style="fill:#e20909;fill-opacity:1;fill-rule:evenodd;stroke:#000000;stroke-width:2.45948076;stroke-linecap:butt;stroke-linejoin:miter;stroke-miterlimit:4;stroke-dasharray:none;stroke-opacity:1"
             d="M 139.68776,129.9528 C 142.63069,142.17303 137.85538,151.45031 137.85538,158.23315 C 137.85538,165.01597 142.9425,195.53872 142.9425,195.53872 L 141.2468,183.66877 C 141.2468,183.66877 164.98671,185.36448 173.46525,192.1473 C 181.94379,198.93014 192.11803,231.14859 188.72662,253.1928"
             id="path8681" />
        </g>
      </g>
    </g>
    <g
       id="g7244">
      <path
         transform="translate(-2.384186e-7,0.439335)"
         id="path6470"
         d="M 443.875 328.90625 C 430.89733 333.20984 436.03151 350.59111 435.28125 365.6875 C 435.28126 376.34391 434.7634 383.53963 435.03125 394.875 C 435.12417 395.55138 435.14428 395.62716 435.25 396.40625 C 435.57779 403.47601 435.33588 407.61797 435.65625 415.21875 C 435.70964 416.48555 435.78562 417.85519 435.875 419.34375 C 435.78744 417.94255 435.7255 416.56846 435.65625 415.21875 C 435.13649 405.08863 435.09374 396.8125 435.09375 396.8125 C 435.07301 396.13392 435.0466 395.52461 435.03125 394.875 C 433.78235 385.78427 433.54708 384.64712 432.5 374.6875 C 432.71007 342.60816 425.44743 339.24537 420.3125 339.46875 C 407.55012 340.02391 408.59375 359.12297 408.59375 377.84375 C 407.6577 384.62248 408.12573 392.18359 408.59375 402.59375 C 408.59374 408.46883 404.84375 424.25 404.84375 424.25 C 404.026 421.62984 402.85846 414.66387 402.1875 412.8125 C 400.48361 408.11098 386.28379 400.895 382.3125 402.21875 C 378.34121 403.54252 383.65625 415.45496 383.65625 420.75 C 383.65624 426.04503 377.03125 440.59995 377.03125 447.21875 C 377.03126 453.83756 378.5 486.88993 378.5 496.15625 C 378.5 505.42255 390.41498 512.40119 393.0625 520.34375 C 395.71001 528.28631 403.48874 533.53493 404.8125 544.125 C 407.56788 557.15784 406.48043 557.66889 403.84375 572.78125 C 404.19524 574.32773 418.28435 577.54113 435.375 578.625 C 453.47678 564.16875 471.83269 547.61663 489.40625 528.875 C 493.99868 518.43796 496.98464 509.29227 499.875 501.34375 C 503.61917 491.04732 506.40625 469.58061 506.40625 461.15625 C 506.40625 452.73192 504.41698 416.87119 506.09375 408.5625 C 510.41948 387.12767 501.7427 379.25 497.0625 379.25 C 486.96134 382.86159 489.66014 396.4773 489.09375 406.875 C 487.63868 414.43127 488.04269 419.10801 486.34375 434.9375 C 487.08795 426.38288 486.32414 419.73059 486.59375 410.03125 C 485.61876 395.35287 486.68433 396.82259 485.6875 383.84375 C 484.43238 371.33717 488.56459 339.34849 473.09375 336.1875 C 462.79319 333.86309 461.83048 357.23751 461.96875 374.5625 C 460.67868 382.00522 460.63587 390.23556 461.03125 399.375 C 460.91355 402.03195 460.81004 404.3103 460.75 406.40625 C 460.76842 402.63768 460.67347 398.72519 460.28125 394.46875 C 459.1585 381.34105 457.88845 379.28404 458.53125 365.09375 C 457.59522 359.4775 459.96775 328.63209 443.875 328.90625 z M 460.625 413.25 C 460.58576 416.84149 460.59941 420.36445 460.5625 425.125 C 460.44716 421.00079 460.53095 417.12587 460.625 413.25 z "
         style="display:inline;fill:#e20909;fill-opacity:1;fill-rule:evenodd;stroke:#000000;stroke-opacity:1;stroke-width:1.91999999999999990;stroke-miterlimit:4;stroke-dasharray:none" />
      <path
         id="path6429"
         d="M 457.30394,539.88216 C 457.30394,539.88216 469.38625,541.32803 477.23769,538.13413"
         style="fill:#e20909;fill-opacity:1;fill-rule:evenodd;stroke:#000000;stroke-width:1.92000055;stroke-linecap:butt;stroke-linejoin:miter;stroke-miterlimit:4;stroke-dasharray:none;stroke-opacity:1" />
      <path
         id="path6431"
         d="M 410.38586,541.79408 C 418.7674,543.84937 433.8221,540.43261 437.7082,533.96353"
         style="fill:#e20909;fill-opacity:1;fill-rule:evenodd;stroke:#000000;stroke-width:1.92000055;stroke-linecap:butt;stroke-linejoin:miter;stroke-miterlimit:4;stroke-dasharray:none;stroke-opacity:1" />
      <path
         id="path6433"
         d="M 411.96385,428.94326 C 419.75308,426.0223 424.62134,425.04865 430.46326,426.0223"
         style="fill:#e20909;fill-opacity:1;fill-rule:evenodd;stroke:#000000;stroke-width:1.92000055;stroke-linecap:butt;stroke-linejoin:miter;stroke-miterlimit:4;stroke-dasharray:none;stroke-opacity:1" />
      <path
         id="path6435"
         d="M 441.17343,427.80546 C 447.01536,426.83181 448.96266,426.83181 453.83093,427.80546"
         style="fill:#e20909;fill-opacity:1;fill-rule:evenodd;stroke:#000000;stroke-width:1.92000055;stroke-linecap:butt;stroke-linejoin:miter;stroke-miterlimit:4;stroke-dasharray:none;stroke-opacity:1" />
      <path
         id="path6437"
         d="M 465.51477,429.75277 C 472.33033,430.72641 476.22495,433.64737 480.11957,434.62103"
         style="fill:#e20909;fill-opacity:1;fill-rule:evenodd;stroke:#000000;stroke-width:1.92000055;stroke-linecap:butt;stroke-linejoin:miter;stroke-miterlimit:4;stroke-dasharray:none;stroke-opacity:1" />
      <path
         id="path6439"
         d="M 489.8561,439.65345 C 494.72436,442.57441 496.67166,443.54806 501.53993,444.52171"
         style="fill:#e20909;fill-opacity:1;fill-rule:evenodd;stroke:#000000;stroke-width:1.92000055;stroke-linecap:butt;stroke-linejoin:miter;stroke-miterlimit:4;stroke-dasharray:none;stroke-opacity:1" />
      <path
         id="path6441"
         d="M 404.99318,424.8067 C 407.29059,434.34645 403.56273,441.58879 403.56273,446.88383 C 403.56273,452.17886 407.534,476.00653 407.534,476.00653 L 406.21025,466.74022 C 406.21025,466.74022 424.74288,468.06398 431.36167,473.35901 C 437.98047,478.65405 445.92302,503.80547 443.2755,521.01435"
         style="fill:#e20909;fill-opacity:1;fill-rule:evenodd;stroke:#000000;stroke-width:1.92000055;stroke-linecap:butt;stroke-linejoin:miter;stroke-miterlimit:4;stroke-dasharray:none;stroke-opacity:1" />
    </g>
    <use
       x="0"
       y="0"
       xlink:href="#path5089"
       id="use7254"
       transform="translate(-282,304)"
       width="600"
       height="660.51825" />
  </g>
  <g
     inkscape:groupmode="layer"
     id="layer2"
     inkscape:label="Reflet final"
     style="display:inline"
     transform="translate(2.384186e-7,-0.439335)"
     sodipodi:insensitive="true">
    <path
       sodipodi:nodetypes="cccccc"
       d="M 300.00001,658.5 C 300.00001,658.5 598.50001,546.1797 598.50001,260.72817 C 598.50001,-24.72333 598.50001,2.1764904 598.50001,2.1764904 L 1.5,2.1764904 L 1.5,260.72817 C 1.5,546.1797 300.00001,658.5 300.00001,658.5 z"
       style="opacity:1;fill:url(#radialGradient3163);fill-opacity:1;fill-rule:evenodd;stroke:none;stroke-width:1px;stroke-linecap:butt;stroke-linejoin:miter;stroke-opacity:1"
       id="path2875"
       inkscape:export-xdpi="144"
       inkscape:export-ydpi="144" />
  </g>
  <g
     inkscape:groupmode="layer"
     id="layer1"
     inkscape:label="Contour final"
     style="display:inline"
     transform="translate(2.384186e-7,-0.439335)"
     sodipodi:insensitive="true">
    <path
       sodipodi:nodetypes="cccccc"
       d="M 299.99999,659.45759 C 299.99999,659.45759 1.5,546.81808 1.5,261.36644 C 1.5,-24.085178 1.5,2.8146541 1.5,2.8146541 L 598.49999,2.8146541 L 598.49999,261.36644 C 598.49999,546.81808 299.99999,659.45759 299.99999,659.45759 z"
       style="opacity:1;fill:none;fill-opacity:1;fill-rule:evenodd;stroke:#000000;stroke-width:3.00000048;stroke-linecap:butt;stroke-linejoin:miter;stroke-miterlimit:4;stroke-dasharray:none;stroke-opacity:1"
       id="path1411"
       inkscape:export-xdpi="144"
       inkscape:export-ydpi="144" />
  </g>
</svg>
